# xmcd
# Copyright (C) 1995-1998 Ti Kan
#
# Track frame offsets:
#       150
#       17216
#       34258
#       56008
#       71195
#       88398
#       104436
#       119573
#       139491
#       156647
#       172022
#       189795
#       205218
#       222936
#       237576
#       253416
#       270489
#       287891
#       304334
#       321010
#
# Disc length: 4450 seconds
#
# Revision: 1
# Processed by: cddbd v1.5.2PL0 Copyright (c) Steve Scherf et al.
# Submitted via: CD-Transfer v1.0
#
DISCID=4b116014
DTITLE=Various Artist - Best Of Drs3 Hitparade
DYEAR=2006
DGENRE=
TTITLE0=Rihanna - Unfaithful
TTITLE1=Pussycat Dolls - Buttons
TTITLE2=Scissor Sisters - I Don't Feel Like Dancing
TTITLE3=Lunik - Little Bit
TTITLE4=Christina Aguilera - Ain't No Other Man
TTITLE5=Pink - U And Ur Hand
TTITLE6=Jamelia - Something About You
TTITLE7=Plüsch - Isch Es Wäge Mir
TTITLE8=Ciara - Get Up
TTITLE9=Beyoncé - Deja Vu
TTITLE10=Kelly Clarkson - Breakaway
TTITLE11=Lovebugs Feat Lene Marlin - Avalon
TTITLE12=Paris Hilton - Stars Are Blind
TTITLE13=Lily Allen - Smile
TTITLE14=Kelis Feat Too $hort - Bossy
TTITLE15=Tiziano Ferro - Stop Dimentica
TTITLE16=Keane - Crystal Ball
TTITLE17=Paolo Nutini - Last Request
TTITLE18=James Blunt - Wiseman
TTITLE19=Orson - No Tomorrow
EXTD=
EXTT0=
EXTT1=
EXTT2=
EXTT3=
EXTT4=
EXTT5=
EXTT6=
EXTT7=
EXTT8=
EXTT9=
EXTT10=
EXTT11=
EXTT12=
EXTT13=
EXTT14=
EXTT15=
EXTT16=
EXTT17=
EXTT18=
EXTT19=
PLAYORDER=
